<svg width="25" height="21" viewBox="0 0 25 21" fill="none" xmlns="http://www.w3.org/2000/svg">
<path d="M17.8117 11.7122V14.3063C17.8117 17.7652 16.1687 19.1487 12.0611 19.1487H8.15886C4.05125 19.1487 2.4082 17.7652 2.4082 14.3063V11.0204C2.4082 7.56153 4.05125 6.17798 8.15886 6.17798H11.2396" stroke="#BBBBBB" stroke-width="1.5" stroke-linecap="round" stroke-linejoin="round"/>
<path d="M17.8113 11.7122H14.5252C12.0607 11.7122 11.2391 11.0204 11.2391 8.94507V6.17798L17.8113 11.7122Z" stroke="#BBBBBB" stroke-width="1.5" stroke-linecap="round" stroke-linejoin="round"/>
<path d="M12.2659 1.85449H16.3735" stroke="#BBBBBB" stroke-width="1.5" stroke-linecap="round" stroke-linejoin="round"/>
<path d="M7.5426 4.44864C7.5426 3.01321 8.91865 1.85449 10.6233 1.85449H13.3138" stroke="#BBBBBB" stroke-width="1.5" stroke-linecap="round" stroke-linejoin="round"/>
<path d="M22.9465 7.04272V12.3953C22.9465 13.7356 21.6526 14.8252 20.0609 14.8252" stroke="#BBBBBB" stroke-width="1.5" stroke-linecap="round" stroke-linejoin="round"/>
<path d="M22.9461 7.04279H19.8654C17.5548 7.04279 16.7847 6.39426 16.7847 4.44864V1.85449L22.9461 7.04279Z" stroke="#BBBBBB" stroke-width="1.5" stroke-linecap="round" stroke-linejoin="round"/>
</svg>
