<svg width="24" height="25" viewBox="0 0 24 25" fill="none" xmlns="http://www.w3.org/2000/svg">
<g id="&#240;&#159;&#166;&#134; icon &#34;Alternate Compress&#34;">
<path id="Vector" d="M0.2506 22.0599L5.56176 16.5179L3.80114 14.7863C2.99255 13.9426 3.56519 12.5 4.70867 12.5H10.6983C11.4071 12.5 11.9792 13.0996 11.9792 13.8393V20.0893C11.9792 21.2825 10.5993 21.88 9.79072 21.0363L8.12872 19.1964L2.81756 24.7385C2.48343 25.0872 1.94164 25.0872 1.60751 24.7385L0.2506 23.3226C-0.0835333 22.9739 -0.0835333 22.4086 0.2506 22.0599ZM23.7077 2.94007L18.3966 8.48214L20.1572 10.2137C20.9658 11.0574 20.3931 12.5 19.2497 12.5H13.2601C12.5512 12.5 11.9792 11.9004 11.9792 11.1607V4.91071C11.9792 3.71752 13.3591 3.11998 14.1676 3.96367L15.8296 5.80357L21.1408 0.261496C21.4749 -0.0871652 22.0167 -0.0871652 22.3508 0.261496L23.7077 1.6774C24.0419 2.02606 24.0419 2.59141 23.7077 2.94007Z" fill="white"/>
</g>
</svg>
