<svg width="25" height="25" viewBox="0 0 25 25" fill="none" xmlns="http://www.w3.org/2000/svg">
<g id="&#240;&#159;&#166;&#134; icon &#34;Alternate Sync&#34;">
<path id="Vector" d="M18.1441 6.31452C16.5803 4.83911 14.5509 4.03034 12.3979 4.03226C8.52331 4.03569 5.17832 6.7126 4.25475 10.4259C4.18752 10.6962 3.94852 10.8871 3.67194 10.8871H0.80551C0.430442 10.8871 0.145515 10.544 0.214896 10.1726C1.29723 4.38125 6.34349 0 12.4055 0C15.7294 0 18.7479 1.31734 20.9751 3.46195L22.7617 1.66179C23.518 0.899748 24.8111 1.43947 24.8111 2.51719V9.27419C24.8111 9.94229 24.2736 10.4839 23.6106 10.4839H16.9046C15.835 10.4839 15.2994 9.1809 16.0557 8.4188L18.1441 6.31452ZM1.20054 14.5161H7.90649C8.97606 14.5161 9.5117 15.8191 8.75541 16.5812L6.66698 18.6855C8.23078 20.161 10.2603 20.9698 12.4134 20.9678C16.286 20.9643 19.6323 18.2892 20.5563 14.5742C20.6236 14.3039 20.8626 14.113 21.1392 14.113H24.0056C24.3807 14.113 24.6656 14.4561 24.5962 14.8275C23.5139 20.6188 18.4676 25 12.4055 25C9.08166 25 6.06316 23.6827 3.83597 21.5381L2.04942 23.3382C1.29313 24.1003 0 23.5605 0 22.4828V15.7258C0 15.0577 0.53749 14.5161 1.20054 14.5161Z" fill="#FAFAFA"/>
</g>
</svg>
