<svg width="387" height="387" viewBox="0 0 387 387" fill="none" xmlns="http://www.w3.org/2000/svg">
<path d="M378.202 28.6898C386.734 37.222 386.734 51.0555 378.202 59.5877L247.742 190.047L197.156 139.461L327.616 9.00172C336.148 0.469484 349.981 0.469477 358.513 9.00171L378.202 28.6898ZM193.846 142.771L244.432 193.357L193.846 243.943L143.26 193.357L193.846 142.771ZM197.156 247.254L247.742 196.668L378.201 327.127C386.734 335.659 386.734 349.492 378.201 358.025L358.513 377.713C349.981 386.245 336.148 386.245 327.615 377.713L197.156 247.254ZM139.949 196.668L190.535 247.254L60.0765 377.713C51.5443 386.245 37.7108 386.245 29.1786 377.713L9.49052 358.025C0.958284 349.492 0.958295 335.659 9.49053 327.127L139.949 196.668ZM139.949 190.047L9.49043 59.5877C0.958195 51.0555 0.958186 37.222 9.49042 28.6898L29.1785 9.00173C37.7107 0.469494 51.5442 0.469503 60.0764 9.00174L190.535 139.461L139.949 190.047Z" fill="white" stroke="#FF0000" stroke-width="4.68175"/>
</svg>
