<svg width="18" height="18" viewBox="0 0 18 18" fill="none" xmlns="http://www.w3.org/2000/svg">
<path d="M0.642857 3.30029H17.3571C17.7122 3.30029 18 2.97196 18 2.56689V0.733398C18 0.328333 17.7122 0 17.3571 0H0.642857C0.287799 0 0 0.328333 0 0.733398V2.56689C0 2.97196 0.287799 3.30029 0.642857 3.30029ZM0.642857 10.6343H17.3571C17.7122 10.6343 18 10.3059 18 9.90088V8.06738C18 7.66232 17.7122 7.33398 17.3571 7.33398H0.642857C0.287799 7.33398 0 7.66232 0 8.06738V9.90088C0 10.3059 0.287799 10.6343 0.642857 10.6343ZM0.642857 17.9683H17.3571C17.7122 17.9683 18 17.6399 18 17.2349V15.4014C18 14.9963 17.7122 14.668 17.3571 14.668H0.642857C0.287799 14.668 0 14.9963 0 15.4014V17.2349C0 17.6399 0.287799 17.9683 0.642857 17.9683Z" fill="#2E5288"/>
</svg>
